<svg
  xmlns="http://www.w3.org/2000/svg"
  version="1.1"
  xmlns:xlink="http://www.w3.org/1999/xlink"
  xmlns:svgjs="http://svgjs.dev/svgjs"
  width="2000"
  height="1252"
  viewBox="0 0 2000 1252"
>
  <g transform="matrix(1,0,0,1,-1.2121212121212466,-2.01935483870966)">
    <svg
      viewBox="0 0 396 248"
      data-background-color="#ffffff"
      preserveAspectRatio="xMidYMid meet"
      height="1252"
      width="2000"
      xmlns="http://www.w3.org/2000/svg"
      xmlns:xlink="http://www.w3.org/1999/xlink"
    >
      <g
        id="tight-bounds"
        transform="matrix(1,0,0,1,0.2400000000000091,0.4000000000000057)"
      >
        <svg viewBox="0 0 395.52 247.2" height="247.2" width="395.52">
          <g><svg></svg></g>
          <g>
            <svg viewBox="0 0 395.52 247.2" height="247.2" width="395.52">
              <mask id="f936e316-00f7-4f1b-84a2-b91de9889181">
                <rect width="395.52" height="247.2" fill="white"></rect>
                <g transform="matrix(1,0,0,1,0,52.966501569584935)" id="clone">
                  <svg
                    viewBox="0 0 395.52 141.26699686083012"
                    height="141.26699686083012"
                    width="395.52"
                  >
                    <g>
                      <svg
                        viewBox="0 0 395.52 141.26699686083012"
                        height="141.26699686083012"
                        width="395.52"
                      >
                        <g>
                          <svg
                            viewBox="0 0 395.52 141.26699686083012"
                            height="141.26699686083012"
                            width="395.52"
                          >
                            <g>
                              <svg
                                viewBox="0 0 395.52 141.26699686083012"
                                height="141.26699686083012"
                                width="395.52"
                              >
                                <g id="SvgjsG3628">
                                  <svg
                                    viewBox="0 0 395.52 141.26699686083012"
                                    height="141.26699686083012"
                                    width="395.52"
                                    id="SvgjsSvg3627"
                                  >
                                    <g>
                                      <svg
                                        viewBox="0 0 395.52 141.26699686083012"
                                        height="141.26699686083012"
                                        width="395.52"
                                      >
                                        <g transform="matrix(1,0,0,1,0,0)">
                                          <svg
                                            width="395.52"
                                            viewBox="1.1500000000000004 -37.1 144.34 52.2"
                                            height="141.26699686083012"
                                            data-palette-color="#a437db"
                                          >
                                            <path
                                              d="M4.15-34.1L8.35-34.1 8.35-12.8Q8.35-9.95 9.18-8.13 10-6.3 11.35-5.25 12.7-4.2 14.43-3.8 16.15-3.4 17.95-3.4L17.95-3.4Q19.75-3.4 21.45-3.8 23.15-4.2 24.5-5.25 25.85-6.3 26.65-8.13 27.45-9.95 27.45-12.8L27.45-12.8 27.45-34.1 31.65-34.1 31.65-11.75Q31.65-9.15 30.68-6.9 29.7-4.65 27.9-2.98 26.1-1.3 23.55-0.35 21 0.6 17.9 0.6L17.9 0.6Q11.25 0.6 7.7-2.63 4.15-5.85 4.15-11.75L4.15-11.75 4.15-34.1ZM39 0L39-20.6Q39-22.3 38.7-24.7L38.7-24.7 42.45-25.2 43-22.05Q44.35-23.05 45.65-23.8 46.95-24.55 48.45-25.1 49.95-25.65 51.5-25.65L51.5-25.65Q54-25.65 55.45-24.78 56.9-23.9 57.6-21.8L57.6-21.8Q59.65-23.25 61.87-24.45 64.1-25.65 66.5-25.65L66.5-25.65Q68.35-25.65 69.65-25.18 70.95-24.7 71.75-23.6 72.55-22.5 72.9-20.7 73.25-18.9 73.25-16.2L73.25-16.2 73.25 0 69.25 0 69.25-15.75Q69.25-17.25 69.2-18.43 69.15-19.6 68.85-20.43 68.55-21.25 67.87-21.7 67.2-22.15 65.95-22.15L65.95-22.15Q64.8-22.15 63.77-21.83 62.75-21.5 61.65-20.9 60.55-20.3 58.25-18.45L58.25-18.45 58.25 0 54.25 0 54.25-15.75Q54.25-17.25 54.2-18.43 54.15-19.6 53.85-20.43 53.55-21.25 52.87-21.7 52.2-22.15 50.95-22.15L50.95-22.15Q49.65-22.15 48.25-21.6 46.85-21.05 45.6-20.3 44.35-19.55 43-18.55L43-18.55 43 0 39 0ZM80.35 0L80.35-20.6Q80.35-22.3 80.05-24.7L80.05-24.7 83.8-25.2 84.35-22.05Q85.7-23.05 87-23.8 88.3-24.55 89.8-25.1 91.3-25.65 92.85-25.65L92.85-25.65Q95.35-25.65 96.8-24.78 98.25-23.9 98.95-21.8L98.95-21.8Q101-23.25 103.22-24.45 105.45-25.65 107.85-25.65L107.85-25.65Q109.7-25.65 111-25.18 112.3-24.7 113.09-23.6 113.9-22.5 114.25-20.7 114.59-18.9 114.59-16.2L114.59-16.2 114.59 0 110.59 0 110.59-15.75Q110.59-17.25 110.55-18.43 110.5-19.6 110.2-20.43 109.9-21.25 109.22-21.7 108.55-22.15 107.3-22.15L107.3-22.15Q106.15-22.15 105.12-21.83 104.1-21.5 103-20.9 101.9-20.3 99.6-18.45L99.6-18.45 99.6 0 95.6 0 95.6-15.75Q95.6-17.25 95.55-18.43 95.5-19.6 95.2-20.43 94.9-21.25 94.22-21.7 93.55-22.15 92.3-22.15L92.3-22.15Q91-22.15 89.6-21.6 88.2-21.05 86.95-20.3 85.7-19.55 84.35-18.55L84.35-18.55 84.35 0 80.35 0ZM128.44-0.65L118.39-25.15 122.64-25.15 127.34-13.8Q128.04-12.15 128.62-10.5 129.19-8.85 129.64-7.55L129.64-7.55Q130.19-6 130.59-4.55L130.59-4.55 130.64-4.55Q131.09-6 131.64-7.55L131.64-7.55Q132.09-8.85 132.69-10.5 133.29-12.15 133.94-13.8L133.94-13.8 138.29-25.15 142.49-25.15 130.59 4.85Q129.89 6.7 128.77 8.05 127.64 9.4 126.59 10.3L126.59 10.3Q125.34 11.35 123.99 12.1L123.99 12.1 122.04 8.65Q123.09 8.15 123.99 7.4L123.99 7.4Q124.79 6.75 125.59 5.78 126.39 4.8 126.89 3.45L126.89 3.45 128.44-0.65Z"
                                              opacity="1"
                                              transform="matrix(1,0,0,1,0,0)"
                                              fill="black"
                                              class="wordmark-text-0"
                                              id="SvgjsPath3626"
                                              stroke-width="5"
                                              stroke="black"
                                              stroke-linejoin="round"
                                            ></path>
                                          </svg>
                                        </g>
                                      </svg>
                                    </g>
                                  </svg>
                                </g>
                              </svg>
                            </g>
                            <g></g>
                          </svg>
                        </g>
                      </svg>
                    </g>
                  </svg>
                </g>
              </mask>
              <g mask="url(#f936e316-00f7-4f1b-84a2-b91de9889181)">
                <g>
                  <path
                    d="M99.806 0h29.921v151.739c0 13.535 1.971 24.625 5.912 33.269 3.894 8.691 9.047 15.53 15.459 20.517 6.412 4.987 13.725 8.43 21.942 10.33 8.169 1.9 16.527 2.85 25.076 2.849v0c8.549 0 16.86-0.95 24.934-2.849 8.074-1.9 15.316-5.343 21.728-10.33 6.412-4.987 11.517-11.826 15.316-20.517 3.799-8.644 5.699-19.733 5.699-33.269v0-151.739h29.921v159.22c0 12.348-2.303 23.865-6.91 34.551-4.654 10.686-11.256 19.994-19.805 27.925-8.549 7.979-18.878 14.224-30.989 18.736-12.111 4.512-25.527 6.768-40.25 6.768v0c-31.583 0-55.804-7.67-72.664-23.01-16.86-15.293-25.29-36.949-25.29-64.97v0z"
                    fill="#a437db"
                    fill-rule="nonzero"
                    stroke="none"
                    stroke-width="1"
                    stroke-linecap="butt"
                    stroke-linejoin="miter"
                    stroke-miterlimit="10"
                    stroke-dasharray=""
                    stroke-dashoffset="0"
                    font-family="none"
                    font-weight="none"
                    font-size="none"
                    text-anchor="none"
                    style="mix-blend-mode: normal"
                    data-fill-palette-color="tertiary"
                  ></path>
                </g>
              </g>
              <g transform="matrix(1,0,0,1,0,52.966501569584935)">
                <svg
                  viewBox="0 0 395.52 141.26699686083012"
                  height="141.26699686083012"
                  width="395.52"
                >
                  <g>
                    <svg
                      viewBox="0 0 395.52 141.26699686083012"
                      height="141.26699686083012"
                      width="395.52"
                    >
                      <g>
                        <svg
                          viewBox="0 0 395.52 141.26699686083012"
                          height="141.26699686083012"
                          width="395.52"
                        >
                          <g>
                            <svg
                              viewBox="0 0 395.52 141.26699686083012"
                              height="141.26699686083012"
                              width="395.52"
                            >
                              <g id="textblocktransform">
                                <svg
                                  viewBox="0 0 395.52 141.26699686083012"
                                  height="141.26699686083012"
                                  width="395.52"
                                  id="textblock"
                                >
                                  <g>
                                    <svg
                                      viewBox="0 0 395.52 141.26699686083012"
                                      height="141.26699686083012"
                                      width="395.52"
                                    >
                                      <g transform="matrix(1,0,0,1,0,0)">
                                        <svg
                                          width="395.52"
                                          viewBox="1.1500000000000004 -37.1 144.34 52.2"
                                          height="141.26699686083012"
                                          data-palette-color="#a437db"
                                        >
                                          <path
                                            d="M4.15-34.1L8.35-34.1 8.35-12.8Q8.35-9.95 9.18-8.13 10-6.3 11.35-5.25 12.7-4.2 14.43-3.8 16.15-3.4 17.95-3.4L17.95-3.4Q19.75-3.4 21.45-3.8 23.15-4.2 24.5-5.25 25.85-6.3 26.65-8.13 27.45-9.95 27.45-12.8L27.45-12.8 27.45-34.1 31.65-34.1 31.65-11.75Q31.65-9.15 30.68-6.9 29.7-4.65 27.9-2.98 26.1-1.3 23.55-0.35 21 0.6 17.9 0.6L17.9 0.6Q11.25 0.6 7.7-2.63 4.15-5.85 4.15-11.75L4.15-11.75 4.15-34.1ZM39 0L39-20.6Q39-22.3 38.7-24.7L38.7-24.7 42.45-25.2 43-22.05Q44.35-23.05 45.65-23.8 46.95-24.55 48.45-25.1 49.95-25.65 51.5-25.65L51.5-25.65Q54-25.65 55.45-24.78 56.9-23.9 57.6-21.8L57.6-21.8Q59.65-23.25 61.87-24.45 64.1-25.65 66.5-25.65L66.5-25.65Q68.35-25.65 69.65-25.18 70.95-24.7 71.75-23.6 72.55-22.5 72.9-20.7 73.25-18.9 73.25-16.2L73.25-16.2 73.25 0 69.25 0 69.25-15.75Q69.25-17.25 69.2-18.43 69.15-19.6 68.85-20.43 68.55-21.25 67.87-21.7 67.2-22.15 65.95-22.15L65.95-22.15Q64.8-22.15 63.77-21.83 62.75-21.5 61.65-20.9 60.55-20.3 58.25-18.45L58.25-18.45 58.25 0 54.25 0 54.25-15.75Q54.25-17.25 54.2-18.43 54.15-19.6 53.85-20.43 53.55-21.25 52.87-21.7 52.2-22.15 50.95-22.15L50.95-22.15Q49.65-22.15 48.25-21.6 46.85-21.05 45.6-20.3 44.35-19.55 43-18.55L43-18.55 43 0 39 0ZM80.35 0L80.35-20.6Q80.35-22.3 80.05-24.7L80.05-24.7 83.8-25.2 84.35-22.05Q85.7-23.05 87-23.8 88.3-24.55 89.8-25.1 91.3-25.65 92.85-25.65L92.85-25.65Q95.35-25.65 96.8-24.78 98.25-23.9 98.95-21.8L98.95-21.8Q101-23.25 103.22-24.45 105.45-25.65 107.85-25.65L107.85-25.65Q109.7-25.65 111-25.18 112.3-24.7 113.09-23.6 113.9-22.5 114.25-20.7 114.59-18.9 114.59-16.2L114.59-16.2 114.59 0 110.59 0 110.59-15.75Q110.59-17.25 110.55-18.43 110.5-19.6 110.2-20.43 109.9-21.25 109.22-21.7 108.55-22.15 107.3-22.15L107.3-22.15Q106.15-22.15 105.12-21.83 104.1-21.5 103-20.9 101.9-20.3 99.6-18.45L99.6-18.45 99.6 0 95.6 0 95.6-15.75Q95.6-17.25 95.55-18.43 95.5-19.6 95.2-20.43 94.9-21.25 94.22-21.7 93.55-22.15 92.3-22.15L92.3-22.15Q91-22.15 89.6-21.6 88.2-21.05 86.95-20.3 85.7-19.55 84.35-18.55L84.35-18.55 84.35 0 80.35 0ZM128.44-0.65L118.39-25.15 122.64-25.15 127.34-13.8Q128.04-12.15 128.62-10.5 129.19-8.85 129.64-7.55L129.64-7.55Q130.19-6 130.59-4.55L130.59-4.55 130.64-4.55Q131.09-6 131.64-7.55L131.64-7.55Q132.09-8.85 132.69-10.5 133.29-12.15 133.94-13.8L133.94-13.8 138.29-25.15 142.49-25.15 130.59 4.85Q129.89 6.7 128.77 8.05 127.64 9.4 126.59 10.3L126.59 10.3Q125.34 11.35 123.99 12.1L123.99 12.1 122.04 8.65Q123.09 8.15 123.99 7.4L123.99 7.4Q124.79 6.75 125.59 5.78 126.39 4.8 126.89 3.45L126.89 3.45 128.44-0.65Z"
                                            opacity="1"
                                            transform="matrix(1,0,0,1,0,0)"
                                            fill="#a437db"
                                            class="wordmark-text-0"
                                            data-fill-palette-color="primary"
                                            id="text-0"
                                          ></path>
                                        </svg>
                                      </g>
                                    </svg>
                                  </g>
                                </svg>
                              </g>
                            </svg>
                          </g>
                          <g></g>
                        </svg>
                      </g>
                    </svg>
                  </g>
                </svg>
              </g>
            </svg>
          </g>
          <defs></defs>
        </svg>
        <rect
          width="395.52"
          height="247.2"
          fill="none"
          stroke="none"
          visibility="hidden"
        ></rect>
      </g>
    </svg>
  </g>
</svg>
